<svg xmlns="http://www.w3.org/2000/svg" id="a" class="logo" viewBox="0 0 468.12 150.06"><defs><style>.b{fill:#ff6700}.c{fill:#2b2b2b}</style></defs><path d="M13.42 103.51h35.7v11.06h-35.7zM13.42 65.67h64.15v11.06H13.42zM13.42 84.59h49.92v11.06H13.42zM13.42 27.82h92.6v11.06h-92.6zM13.42 46.74h78.37V57.8H13.42z" class="b"/><path d="M423 46.67h17.92v5.48H423zM120.31 61.62c5.09-3.45 12.96-4.66 19.06-4.66 3.77 0 8.45.6 11.7 2.5 2.24 1.3 4.99 3.8 4.99 7.94 0 4.75-4.07 7.08-6.11 8.03 2.14.43 4.27 1.38 5.8 2.5 1.93 1.47 3.36 3.71 3.36 6.91 0 4.4-2.75 7.17-5.09 8.63-3.77 2.42-9.77 3.28-14.45 3.28-5.29 0-14.21-1.04-20.12-6.22l6.11-6.39c3.56 2.85 9.63 3.97 12.99 3.97 6.31 0 7.73-2.5 7.73-4.23 0-1.12-.61-2.33-2.34-3.11-1.42-.6-3.26-.69-5.29-.69h-5.19v-7.6h4.99c1.63 0 3.66-.17 4.89-.86 1.32-.78 1.53-1.81 1.53-2.59 0-1.99-1.63-3.8-6.72-3.8-3.97 0-9.5 1.04-12.14 2.94l-5.7-6.56ZM194.57 58.16h10.99v37.38h-10.99v-4.83c-3.96 5.44-9.19 6.04-11.98 6.04-11.98 0-19.91-8.98-19.91-19.94s7.84-19.86 19.37-19.86c2.97 0 8.83.52 12.52 6.04v-4.83Zm-20.54 18.65c0 5.96 4.51 10.62 10.81 10.62s10.81-4.66 10.81-10.62-4.51-10.53-10.81-10.53-10.81 4.58-10.81 10.53ZM236.58 56.95c-4.87 0-10.72 1.47-13.7 5.09.27-3.28 1.49-5.28 3.77-7.06 4.9-3.84 7.95-1.99 15.6-4.24 4.15-1.22 10.37-3.89 12.45-11.87h-10.57c-1.25 1.68-3.6 2.71-8.09 3.58-5.23 1.04-13.44 1.82-18.49 8.47-2.88 3.8-5.03 7.66-5.03 22 0 5.35.54 13.3 7.03 18.91 5.05 4.4 11.35 4.92 15.59 4.92 6.22 0 11.17-1.47 15.5-5.27 3.15-2.76 6.58-7.51 6.58-14.76 0-7.94-3.87-12.52-6.04-14.51-3.78-3.54-8.74-5.27-14.6-5.27Zm-1.71 30.48c-6.49 0-10.99-4.66-10.99-10.53s4.42-10.62 10.99-10.62 10.99 4.66 10.99 10.62-4.51 10.53-10.99 10.53ZM275.56 58.16v23.05l18.02-23.05h10.99v37.38h-10.99V72.49l-18.02 23.05h-10.99V58.16h10.99ZM336.5 56.96c-3.33 0-8.83.86-12.7 6.04v-4.83h-10.99v49h10.99V90.72c4.23 5.61 9.91 6.04 12.43 6.04 11.53 0 19.46-8.55 19.46-19.94s-7.66-19.86-19.19-19.86Zm-2.97 30.48c-6.31 0-10.81-4.66-10.81-10.62s4.5-10.53 10.81-10.53 10.81 4.58 10.81 10.53-4.5 10.62-10.81 10.62ZM392.96 58.16h10.99v37.38h-10.99v-4.83c-3.96 5.44-9.19 6.04-11.98 6.04-11.98 0-19.91-8.98-19.91-19.94s7.84-19.86 19.37-19.86c2.97 0 8.83.52 12.52 6.04v-4.83Zm-20.54 18.65c0 5.96 4.5 10.62 10.81 10.62s10.81-4.66 10.81-10.62-4.5-10.53-10.81-10.53-10.81 4.58-10.81 10.53ZM422.95 58.16v23.05l18.02-23.05h10.99v37.39h-10.99V72.49l-18.02 23.06h-10.99V58.16h10.99z" class="c"/></svg>